<?xml version="1.0" encoding="us-ascii" standalone="no"?><svg xmlns="http://www.w3.org/2000/svg" xmlns:xlink="http://www.w3.org/1999/xlink" contentStyleType="text/css" height="343px" preserveAspectRatio="none" style="width:898px;height:343px;background:#FFFFFF;" version="1.1" viewBox="0 0 898 343" width="898px" zoomAndPan="magnify"><defs/><g><!--cluster Client Side--><g id="cluster_Client Side"><path d="M8.5,6 L87.5,6 A3.75,3.75 0 0 1 90,8.5 L97,28.4883 L268.5,28.4883 A2.5,2.5 0 0 1 271,30.9883 L271,102.5 A2.5,2.5 0 0 1 268.5,105 L8.5,105 A2.5,2.5 0 0 1 6,102.5 L6,8.5 A2.5,2.5 0 0 1 8.5,6 " fill="none" style="stroke:#000000;stroke-width:1.5;"/><line style="stroke:#000000;stroke-width:1.5;" x1="6" x2="97" y1="28.4883" y2="28.4883"/><text fill="#000000" font-family="sans-serif" font-size="14" font-weight="bold" lengthAdjust="spacing" textLength="78" x="10" y="21.5352">Client Side</text></g><!--cluster System Side--><g id="cluster_System Side"><path d="M556.5,129 L644.5,129 A3.75,3.75 0 0 1 647,131.5 L654,151.4883 L888.5,151.4883 A2.5,2.5 0 0 1 891,153.9883 L891,333.5 A2.5,2.5 0 0 1 888.5,336 L556.5,336 A2.5,2.5 0 0 1 554,333.5 L554,131.5 A2.5,2.5 0 0 1 556.5,129 " fill="none" style="stroke:#000000;stroke-width:1.5;"/><line style="stroke:#000000;stroke-width:1.5;" x1="554" x2="654" y1="151.4883" y2="151.4883"/><text fill="#000000" font-family="sans-serif" font-size="14" font-weight="bold" lengthAdjust="spacing" textLength="87" x="558" y="144.5352">System Side</text></g><!--cluster Shared--><g id="cluster_Shared"><path d="M144.5,129 L193.5,129 A3.75,3.75 0 0 1 196,131.5 L203,151.4883 L527.5,151.4883 A2.5,2.5 0 0 1 530,153.9883 L530,333.5 A2.5,2.5 0 0 1 527.5,336 L144.5,336 A2.5,2.5 0 0 1 142,333.5 L142,131.5 A2.5,2.5 0 0 1 144.5,129 " fill="none" style="stroke:#000000;stroke-width:1.5;"/><line style="stroke:#000000;stroke-width:1.5;" x1="142" x2="203" y1="151.4883" y2="151.4883"/><text fill="#000000" font-family="sans-serif" font-size="14" font-weight="bold" lengthAdjust="spacing" textLength="48" x="146" y="144.5352">Shared</text></g><!--class Instructors--><g id="elem_Instructors"><rect codeLine="4" fill="#F1F1F1" height="48" id="Instructors" rx="2.5" ry="2.5" style="stroke:#181818;stroke-width:0.5;" width="106" x="149" y="41"/><ellipse cx="164" cy="57" fill="#ADD1B2" rx="11" ry="11" style="stroke:#181818;stroke-width:1.0;"/><path d="M168.1143,63 L160.3945,63 L160.3945,50.6069 L168.1143,50.6069 L168.1143,52.7651 L162.8433,52.7651 L162.8433,55.438 L167.6162,55.438 L167.6162,57.5962 L162.8433,57.5962 L162.8433,60.8418 L168.1143,60.8418 Z " fill="#000000"/><text fill="#000000" font-family="sans-serif" font-size="14" lengthAdjust="spacing" textLength="74" x="178" y="62.291">Instructors</text><line style="stroke:#181818;stroke-width:0.5;" x1="150" x2="254" y1="73" y2="73"/><line style="stroke:#181818;stroke-width:0.5;" x1="150" x2="254" y1="81" y2="81"/></g><!--class Students--><g id="elem_Students"><rect codeLine="5" fill="#F1F1F1" height="48" id="Students" rx="2.5" ry="2.5" style="stroke:#181818;stroke-width:0.5;" width="92" x="22" y="41"/><ellipse cx="37" cy="57" fill="#ADD1B2" rx="11" ry="11" style="stroke:#181818;stroke-width:1.0;"/><path d="M41.1143,63 L33.3945,63 L33.3945,50.6069 L41.1143,50.6069 L41.1143,52.7651 L35.8433,52.7651 L35.8433,55.438 L40.6162,55.438 L40.6162,57.5962 L35.8433,57.5962 L35.8433,60.8418 L41.1143,60.8418 Z " fill="#000000"/><text fill="#000000" font-family="sans-serif" font-size="14" lengthAdjust="spacing" textLength="60" x="51" y="62.291">Students</text><line style="stroke:#181818;stroke-width:0.5;" x1="23" x2="113" y1="73" y2="73"/><line style="stroke:#181818;stroke-width:0.5;" x1="23" x2="113" y1="81" y2="81"/></g><!--class StaffRoles--><g id="elem_StaffRoles"><rect codeLine="10" fill="#F1F1F1" height="48" id="StaffRoles" rx="2.5" ry="2.5" style="stroke:#181818;stroke-width:0.5;" width="100" x="762" y="164"/><ellipse cx="777" cy="180" fill="#ADD1B2" rx="11" ry="11" style="stroke:#181818;stroke-width:1.0;"/><path d="M781.1143,186 L773.3945,186 L773.3945,173.6069 L781.1143,173.6069 L781.1143,175.7651 L775.8433,175.7651 L775.8433,178.438 L780.6162,178.438 L780.6162,180.5962 L775.8433,180.5962 L775.8433,183.8418 L781.1143,183.8418 Z " fill="#000000"/><text fill="#000000" font-family="sans-serif" font-size="14" lengthAdjust="spacing" textLength="68" x="791" y="185.291">StaffRoles</text><line style="stroke:#181818;stroke-width:0.5;" x1="763" x2="861" y1="196" y2="196"/><line style="stroke:#181818;stroke-width:0.5;" x1="763" x2="861" y1="204" y2="204"/></g><!--class StaffMembers--><g id="elem_StaffMembers"><rect codeLine="11" fill="#F1F1F1" height="48" id="StaffMembers" rx="2.5" ry="2.5" style="stroke:#181818;stroke-width:0.5;" width="126" x="749" y="272"/><ellipse cx="764" cy="288" fill="#ADD1B2" rx="11" ry="11" style="stroke:#181818;stroke-width:1.0;"/><path d="M768.1143,294 L760.3945,294 L760.3945,281.6069 L768.1143,281.6069 L768.1143,283.7651 L762.8433,283.7651 L762.8433,286.438 L767.6162,286.438 L767.6162,288.5962 L762.8433,288.5962 L762.8433,291.8418 L768.1143,291.8418 Z " fill="#000000"/><text fill="#000000" font-family="sans-serif" font-size="14" lengthAdjust="spacing" textLength="94" x="778" y="293.291">StaffMembers</text><line style="stroke:#181818;stroke-width:0.5;" x1="750" x2="874" y1="304" y2="304"/><line style="stroke:#181818;stroke-width:0.5;" x1="750" x2="874" y1="312" y2="312"/></g><!--class ProgressBars--><g id="elem_ProgressBars"><rect codeLine="12" fill="#F1F1F1" height="48" id="ProgressBars" rx="2.5" ry="2.5" style="stroke:#181818;stroke-width:0.5;" width="121" x="576.5" y="164"/><ellipse cx="591.5" cy="180" fill="#ADD1B2" rx="11" ry="11" style="stroke:#181818;stroke-width:1.0;"/><path d="M595.6143,186 L587.8945,186 L587.8945,173.6069 L595.6143,173.6069 L595.6143,175.7651 L590.3433,175.7651 L590.3433,178.438 L595.1162,178.438 L595.1162,180.5962 L590.3433,180.5962 L590.3433,183.8418 L595.6143,183.8418 Z " fill="#000000"/><text fill="#000000" font-family="sans-serif" font-size="14" lengthAdjust="spacing" textLength="89" x="605.5" y="185.291">ProgressBars</text><line style="stroke:#181818;stroke-width:0.5;" x1="577.5" x2="696.5" y1="196" y2="196"/><line style="stroke:#181818;stroke-width:0.5;" x1="577.5" x2="696.5" y1="204" y2="204"/></g><!--class PathwayCourses--><g id="elem_PathwayCourses"><rect codeLine="13" fill="#F1F1F1" height="48" id="PathwayCourses" rx="2.5" ry="2.5" style="stroke:#181818;stroke-width:0.5;" width="144" x="570" y="272"/><ellipse cx="585" cy="288" fill="#ADD1B2" rx="11" ry="11" style="stroke:#181818;stroke-width:1.0;"/><path d="M589.1143,294 L581.3945,294 L581.3945,281.6069 L589.1143,281.6069 L589.1143,283.7651 L583.8433,283.7651 L583.8433,286.438 L588.6162,286.438 L588.6162,288.5962 L583.8433,288.5962 L583.8433,291.8418 L589.1143,291.8418 Z " fill="#000000"/><text fill="#000000" font-family="sans-serif" font-size="14" lengthAdjust="spacing" textLength="112" x="599" y="293.291">PathwayCourses</text><line style="stroke:#181818;stroke-width:0.5;" x1="571" x2="713" y1="304" y2="304"/><line style="stroke:#181818;stroke-width:0.5;" x1="571" x2="713" y1="312" y2="312"/></g><!--class Courses--><g id="elem_Courses"><rect codeLine="18" fill="#F1F1F1" height="48" id="Courses" rx="2.5" ry="2.5" style="stroke:#181818;stroke-width:0.5;" width="88" x="158" y="164"/><ellipse cx="173" cy="180" fill="#ADD1B2" rx="11" ry="11" style="stroke:#181818;stroke-width:1.0;"/><path d="M177.1143,186 L169.3945,186 L169.3945,173.6069 L177.1143,173.6069 L177.1143,175.7651 L171.8433,175.7651 L171.8433,178.438 L176.6162,178.438 L176.6162,180.5962 L171.8433,180.5962 L171.8433,183.8418 L177.1143,183.8418 Z " fill="#000000"/><text fill="#000000" font-family="sans-serif" font-size="14" lengthAdjust="spacing" textLength="56" x="187" y="185.291">Courses</text><line style="stroke:#181818;stroke-width:0.5;" x1="159" x2="245" y1="196" y2="196"/><line style="stroke:#181818;stroke-width:0.5;" x1="159" x2="245" y1="204" y2="204"/></g><!--class Notification--><g id="elem_Notification"><rect codeLine="19" fill="#F1F1F1" height="48" id="Notification" rx="2.5" ry="2.5" style="stroke:#181818;stroke-width:0.5;" width="111" x="402.5" y="164"/><ellipse cx="417.5" cy="180" fill="#ADD1B2" rx="11" ry="11" style="stroke:#181818;stroke-width:1.0;"/><path d="M421.6143,186 L413.8945,186 L413.8945,173.6069 L421.6143,173.6069 L421.6143,175.7651 L416.3433,175.7651 L416.3433,178.438 L421.1162,178.438 L421.1162,180.5962 L416.3433,180.5962 L416.3433,183.8418 L421.6143,183.8418 Z " fill="#000000"/><text fill="#000000" font-family="sans-serif" font-size="14" lengthAdjust="spacing" textLength="79" x="431.5" y="185.291">Notification</text><line style="stroke:#181818;stroke-width:0.5;" x1="403.5" x2="512.5" y1="196" y2="196"/><line style="stroke:#181818;stroke-width:0.5;" x1="403.5" x2="512.5" y1="204" y2="204"/></g><!--class Quizzes--><g id="elem_Quizzes"><rect codeLine="20" fill="#F1F1F1" height="48" id="Quizzes" rx="2.5" ry="2.5" style="stroke:#181818;stroke-width:0.5;" width="87" x="280.5" y="164"/><ellipse cx="295.5" cy="180" fill="#ADD1B2" rx="11" ry="11" style="stroke:#181818;stroke-width:1.0;"/><path d="M299.6143,186 L291.8945,186 L291.8945,173.6069 L299.6143,173.6069 L299.6143,175.7651 L294.3433,175.7651 L294.3433,178.438 L299.1162,178.438 L299.1162,180.5962 L294.3433,180.5962 L294.3433,183.8418 L299.6143,183.8418 Z " fill="#000000"/><text fill="#000000" font-family="sans-serif" font-size="14" lengthAdjust="spacing" textLength="55" x="309.5" y="185.291">Quizzes</text><line style="stroke:#181818;stroke-width:0.5;" x1="281.5" x2="366.5" y1="196" y2="196"/><line style="stroke:#181818;stroke-width:0.5;" x1="281.5" x2="366.5" y1="204" y2="204"/></g><!--class Enrollments--><g id="elem_Enrollments"><rect codeLine="21" fill="#F1F1F1" height="48" id="Enrollments" rx="2.5" ry="2.5" style="stroke:#181818;stroke-width:0.5;" width="114" x="158" y="272"/><ellipse cx="173" cy="288" fill="#ADD1B2" rx="11" ry="11" style="stroke:#181818;stroke-width:1.0;"/><path d="M177.1143,294 L169.3945,294 L169.3945,281.6069 L177.1143,281.6069 L177.1143,283.7651 L171.8433,283.7651 L171.8433,286.438 L176.6162,286.438 L176.6162,288.5962 L171.8433,288.5962 L171.8433,291.8418 L177.1143,291.8418 Z " fill="#000000"/><text fill="#000000" font-family="sans-serif" font-size="14" lengthAdjust="spacing" textLength="82" x="187" y="293.291">Enrollments</text><line style="stroke:#181818;stroke-width:0.5;" x1="159" x2="271" y1="304" y2="304"/><line style="stroke:#181818;stroke-width:0.5;" x1="159" x2="271" y1="312" y2="312"/></g><!--class Chapters--><g id="elem_Chapters"><rect codeLine="22" fill="#F1F1F1" height="48" id="Chapters" rx="2.5" ry="2.5" style="stroke:#181818;stroke-width:0.5;" width="94" x="307" y="272"/><ellipse cx="322" cy="288" fill="#ADD1B2" rx="11" ry="11" style="stroke:#181818;stroke-width:1.0;"/><path d="M326.1143,294 L318.3945,294 L318.3945,281.6069 L326.1143,281.6069 L326.1143,283.7651 L320.8433,283.7651 L320.8433,286.438 L325.6162,286.438 L325.6162,288.5962 L320.8433,288.5962 L320.8433,291.8418 L326.1143,291.8418 Z " fill="#000000"/><text fill="#000000" font-family="sans-serif" font-size="14" lengthAdjust="spacing" textLength="62" x="336" y="293.291">Chapters</text><line style="stroke:#181818;stroke-width:0.5;" x1="308" x2="400" y1="304" y2="304"/><line style="stroke:#181818;stroke-width:0.5;" x1="308" x2="400" y1="312" y2="312"/></g><!--link Instructors to Chapters--><g id="link_Instructors_Chapters"><path codeLine="27" d="M166.18,89.49 C156.12,98.08 146.45,108.75 141,121 C124.56,157.95 118.18,178.61 141,212 C145.94,219.23 239.6765,253.9025 300.9165,276.0125 " fill="none" id="Instructors-to-Chapters" style="stroke:#181818;stroke-width:1.0;"/><polygon fill="#181818" points="306.56,278.05,299.4532,271.2314,301.8571,276.3521,296.7365,278.756,306.56,278.05" style="stroke:#181818;stroke-width:1.0;"/></g><!--link Instructors to Notification--><g id="link_Instructors_Notification"><path codeLine="28" d="M255.35,75.5 C293.24,83.77 344.4,98.1 385,121 C404.79,132.16 419.5529,145.2231 433.1829,159.3431 " fill="none" id="Instructors-to-Notification" style="stroke:#181818;stroke-width:1.0;"/><polygon fill="#181818" points="437.35,163.66,433.9773,154.4066,433.8774,160.0626,428.2215,159.9627,437.35,163.66" style="stroke:#181818;stroke-width:1.0;"/></g><!--link Instructors to Courses--><g id="link_Instructors_Courses"><path codeLine="29" d="M202,89.33 C202,110.76 202,136.34 202,157.74 " fill="none" id="Instructors-to-Courses" style="stroke:#181818;stroke-width:1.0;"/><polygon fill="#181818" points="202,163.74,206,154.74,202,158.74,198,154.74,202,163.74" style="stroke:#181818;stroke-width:1.0;"/></g><!--link Quizzes to Chapters--><g id="link_Quizzes_Chapters"><path codeLine="30" d="M330.58,212.26 C335.59,229.94 340.7955,248.3569 345.7955,266.0169 " fill="none" id="Quizzes-to-Chapters" style="stroke:#181818;stroke-width:1.0;"/><polygon fill="#181818" points="347.43,271.79,348.827,262.0407,346.0679,266.9791,341.1295,264.2201,347.43,271.79" style="stroke:#181818;stroke-width:1.0;"/></g><!--link Quizzes to Instructors--><g id="link_Quizzes_Instructors"><path codeLine="31" d="M303.33,163.61 C291.74,150.76 276.88,134.71 263,121 C252.14,110.28 244.1945,102.8962 233.3945,93.2962 " fill="none" id="Quizzes-to-Instructors" style="stroke:#181818;stroke-width:1.0;"/><polygon fill="#181818" points="228.91,89.31,232.9792,98.2789,232.647,92.6318,238.2941,92.2996,228.91,89.31" style="stroke:#181818;stroke-width:1.0;"/></g><!--link Courses to PathwayCourses--><g id="link_Courses_PathwayCourses"><path codeLine="33" d="M246.39,206.59 C251.94,208.54 257.57,210.39 263,212 C292.1,220.62 462.2501,257.0074 563.8601,278.5174 " fill="none" id="Courses-to-PathwayCourses" style="stroke:#181818;stroke-width:1.0;"/><polygon fill="#181818" points="569.73,279.76,561.7535,273.9828,564.8384,278.7245,560.0967,281.8094,569.73,279.76" style="stroke:#181818;stroke-width:1.0;"/></g><!--link ProgressBars to PathwayCourses--><g id="link_ProgressBars_PathwayCourses"><path codeLine="34" d="M638.1,212.26 C638.93,229.94 639.7849,248.1368 640.6249,265.7968 " fill="none" id="ProgressBars-to-PathwayCourses" style="stroke:#181818;stroke-width:1.0;"/><polygon fill="#181818" points="640.91,271.79,644.4779,262.6101,640.6724,266.7956,636.4869,262.9902,640.91,271.79" style="stroke:#181818;stroke-width:1.0;"/></g><!--link ProgressBars to Chapters--><g id="link_ProgressBars_Chapters"><path codeLine="35" d="M576.29,211.74 C523.83,231.39 454.7088,257.2754 406.6788,275.2654 " fill="none" id="ProgressBars-to-Chapters" style="stroke:#181818;stroke-width:1.0;"/><polygon fill="#181818" points="401.06,277.37,410.8912,277.959,405.7423,275.6162,408.0851,270.4673,401.06,277.37" style="stroke:#181818;stroke-width:1.0;"/></g><!--link StaffRoles to StaffMembers--><g id="link_StaffRoles_StaffMembers"><path codeLine="36" d="M812,212.26 C812,229.94 812,248.13 812,265.79 " fill="none" id="StaffRoles-to-StaffMembers" style="stroke:#181818;stroke-width:1.0;"/><polygon fill="#181818" points="812,271.79,816,262.79,812,266.79,808,262.79,812,271.79" style="stroke:#181818;stroke-width:1.0;"/></g><!--link StaffMembers to Notification--><g id="link_StaffMembers_Notification"><path codeLine="37" d="M748.55,276 C681.71,255.99 583.218,226.4907 519.448,207.4007 " fill="none" id="StaffMembers-to-Notification" style="stroke:#181818;stroke-width:1.0;"/><polygon fill="#181818" points="513.7,205.68,521.1748,212.093,518.49,207.1139,523.4691,204.4291,513.7,205.68" style="stroke:#181818;stroke-width:1.0;"/></g><!--link Students to Enrollments--><g id="link_Students_Enrollments"><path codeLine="38" d="M62.7365,95.4075 C58.2865,126.0075 55.85,174.16 79,212 C96.83,241.14 123.6649,258.96 152.2949,272.21 " fill="none" id="Students-Enrollments" style="stroke:#181818;stroke-width:1.0;"/><polygon fill="#181818" points="63.6,89.47,58.3464,97.8007,62.8804,94.418,66.2632,98.952,63.6,89.47" style="stroke:#181818;stroke-width:1.0;"/><polygon fill="#181818" points="157.74,274.73,151.2523,267.3199,153.2024,272.63,147.8923,274.5801,157.74,274.73" style="stroke:#181818;stroke-width:1.0;"/></g><!--link Courses to Enrollments--><g id="link_Courses_Enrollments"><path codeLine="39" d="M205.5809,218.2153 C207.7509,235.8953 209.2616,248.1744 211.4216,265.8344 " fill="none" id="Courses-Enrollments" style="stroke:#181818;stroke-width:1.0;"/><polygon fill="#181818" points="204.85,212.26,201.9762,221.6803,205.4591,217.2228,209.9166,220.7057,204.85,212.26" style="stroke:#181818;stroke-width:1.0;"/><polygon fill="#181818" points="212.15,271.79,215.0278,262.371,211.543,266.827,207.0869,263.3422,212.15,271.79" style="stroke:#181818;stroke-width:1.0;"/></g><!--link Quizzes to StaffMembers--><g id="link_Quizzes_StaffMembers"><path codeLine="40" d="M373.6638,208.6613 C379.3338,210.6113 379.43,210.48 385,212 C536.01,253.13 579.45,236.99 732,272 C737.49,273.26 737.3664,273.1476 743.0464,274.6376 " fill="none" id="Quizzes-StaffMembers" style="stroke:#181818;stroke-width:1.0;"/><polygon fill="#181818" points="367.99,206.71,375.1999,213.4195,372.7182,208.3361,377.8016,205.8544,367.99,206.71" style="stroke:#181818;stroke-width:1.0;"/><polygon fill="#181818" points="748.85,276.16,741.1595,270.0073,744.0136,274.8913,739.1296,277.7454,748.85,276.16" style="stroke:#181818;stroke-width:1.0;"/></g><!--SRC=[ZL8nRiCm3Dpr2Y9BflmWwD0WGuSMRVm2rQPZeR9aY3GAf-ZV6maHJ2ajK4_o7Naw7hM5WpNe61hJ8HmT6pP8QjBjXpuZR0IxWIy5rmzZqG9FZZZCBVj04cvuxgv7KjzARQ5PY77yIrombNZ3kkzFtYBTeSyulcDvvslmvu14Zxh2DG-VUZduEH1cHuCEsFrc9X6LZzmge1VFfZUjPkETnDzcSxcKfKSNlBLZYaEA3dhYE48oT4ARj6Wm4oabOeNTxc4jheZ2HiLbrpTB2Seo0YjMg6vDaQXoa_7-WrujhrjCUB4- -NCtJtv4i8zzCiRiCX8IpsFjwuj-0000]--></g></svg>